name C:\Users\u0101727\Documents\MyRepositories\predictivesimulations\OpenSimModel\subject1\GRF\gait_64_test.mot
datacolumns 19
datarows 22
range 2.20600000 2.22700000
endheader

                time	     ground_force_vx	     ground_force_vy	     ground_force_vz	     ground_force_px	     ground_force_py	     ground_force_pz	   1_ground_force_vx	   1_ground_force_vy	   1_ground_force_vz	   1_ground_force_px	   1_ground_force_py	   1_ground_force_pz	     ground_torque_x	     ground_torque_y	     ground_torque_z	   1_ground_torque_x	   1_ground_torque_y	   1_ground_torque_z	
          2.20600000	          0.00000000	          0.00000000	          0.00000000	          0.00000000	          0.00000000	          0.00000000	         94.30067062	        324.84618298	         -3.01861223	          0.56719266	          0.00000000	          0.27283436	          0.00000000	          0.00000000	          0.00000000	          0.00000000	          1.54894715	          0.00000000	
          2.20700000	          0.00000000	          0.00000000	          0.00000000	          0.00000000	          0.00000000	          0.00000000	         93.20773618	        318.64861214	         -2.75744446	          0.56733341	          0.00000000	          0.27283805	          0.00000000	          0.00000000	          0.00000000	          0.00000000	          1.50770883	          0.00000000	
          2.20800000	          0.00000000	          0.00000000	          0.00000000	          0.00000000	          0.00000000	          0.00000000	         92.06656325	        312.39101538	         -2.50163357	          0.56747492	          0.00000000	          0.27284176	          0.00000000	          0.00000000	          0.00000000	          0.00000000	          1.46644923	          0.00000000	
          2.20900000	          0.00000000	          0.00000000	          0.00000000	          0.00000000	          0.00000000	          0.00000000	         90.87775070	        306.07779877	         -2.25166335	          0.56761721	          0.00000000	          0.27284551	          0.00000000	          0.00000000	          0.00000000	          0.00000000	          1.42519119	          0.00000000	
          2.21000000	          0.00000000	          0.00000000	          0.00000000	          0.00000000	          0.00000000	          0.00000000	         89.64200892	        299.71354761	         -2.00800709	          0.56776029	          0.00000000	          0.27284930	          0.00000000	          0.00000000	          0.00000000	          0.00000000	          1.38395813	          0.00000000	
          2.21100000	          0.00000000	          0.00000000	          0.00000000	          0.00000000	          0.00000000	          0.00000000	         88.36016102	        293.30301900	         -1.77112512	          0.56790420	          0.00000000	          0.27285312	          0.00000000	          0.00000000	          0.00000000	          0.00000000	          1.34277407	          0.00000000	
          2.21200000	          0.00000000	          0.00000000	          0.00000000	          0.00000000	          0.00000000	          0.00000000	         87.03314359	        286.85113376	         -1.54146237	          0.56804897	          0.00000000	          0.27285699	          0.00000000	          0.00000000	          0.00000000	          0.00000000	          1.30166364	          0.00000000	
          2.21300000	          0.00000000	          0.00000000	          0.00000000	          0.00000000	          0.00000000	          0.00000000	         85.66200700	        280.36296757	         -1.31944615	          0.56819462	          0.00000000	          0.27286090	          0.00000000	          0.00000000	          0.00000000	          0.00000000	          1.26065208	          0.00000000	
          2.21400000	          0.00000000	          0.00000000	          0.00000000	          0.00000000	          0.00000000	          0.00000000	         84.24791529	        273.84374141	         -1.10548386	          0.56834121	          0.00000000	          0.27286485	          0.00000000	          0.00000000	          0.00000000	          0.00000000	          1.21976524	          0.00000000	
          2.21500000	          0.00000000	          0.00000000	          0.00000000	          0.00000000	          0.00000000	          0.00000000	         82.79214547	        267.29881140	         -0.89996090	          0.56848878	          0.00000000	          0.27286884	          0.00000000	          0.00000000	          0.00000000	          0.00000000	          1.17902955	          0.00000000	
          2.21600000	          0.00000000	          0.00000000	          0.00000000	          0.00000000	          0.00000000	          0.00000000	         81.29608638	        260.73365785	         -0.70323874	          0.56863739	          0.00000000	          0.27287285	          0.00000000	          0.00000000	          0.00000000	          0.00000000	          1.13847205	          0.00000000	
          2.21700000	          0.00000000	          0.00000000	          0.00000000	          0.00000000	          0.00000000	          0.00000000	         79.76123703	        254.15387348	         -0.51565295	          0.56878708	          0.00000000	          0.27287689	          0.00000000	          0.00000000	          0.00000000	          0.00000000	          1.09812028	          0.00000000	
          2.21800000	          0.00000000	          0.00000000	          0.00000000	          0.00000000	          0.00000000	          0.00000000	         78.18920433	        247.56515098	         -0.33751154	          0.56893792	          0.00000000	          0.27288093	          0.00000000	          0.00000000	          0.00000000	          0.00000000	          1.05800231	          0.00000000	
          2.21900000	          0.00000000	          0.00000000	          0.00000000	          0.00000000	          0.00000000	          0.00000000	         76.58170036	        240.97326977	         -0.16909329	          0.56908997	          0.00000000	          0.27288497	          0.00000000	          0.00000000	          0.00000000	          0.00000000	          1.01814663	          0.00000000	
          2.22000000	          0.00000000	          0.00000000	          0.00000000	          0.00000000	          0.00000000	          0.00000000	         74.94053911	        234.38408209	         -0.01064627	          0.56924332	          0.00000000	          0.27288899	          0.00000000	          0.00000000	          0.00000000	          0.00000000	          0.97858207	          0.00000000	
          2.22100000	          0.00000000	          0.00000000	          0.00000000	          0.00000000	          0.00000000	          0.00000000	         73.26763273	        227.80349844	          0.13761351	          0.56939803	          0.00000000	          0.27289298	          0.00000000	          0.00000000	          0.00000000	          0.00000000	          0.93933780	          0.00000000	
          2.22200000	          0.00000000	          0.00000000	          0.00000000	          0.00000000	          0.00000000	          0.00000000	         71.56498730	        221.23747234	          0.27550335	          0.56955418	          0.00000000	          0.27289692	          0.00000000	          0.00000000	          0.00000000	          0.00000000	          0.90044318	          0.00000000	
          2.22300000	          0.00000000	          0.00000000	          0.00000000	          0.00000000	          0.00000000	          0.00000000	         69.83469824	        214.69198443	          0.40287488	          0.56971186	          0.00000000	          0.27290079	          0.00000000	          0.00000000	          0.00000000	          0.00000000	          0.86192768	          0.00000000	
          2.22400000	          0.00000000	          0.00000000	          0.00000000	          0.00000000	          0.00000000	          0.00000000	         68.07894527	        208.17302589	          0.51961506	          0.56987116	          0.00000000	          0.27290457	          0.00000000	          0.00000000	          0.00000000	          0.00000000	          0.82382082	          0.00000000	
          2.22500000	          0.00000000	          0.00000000	          0.00000000	          0.00000000	          0.00000000	          0.00000000	         66.29998700	        201.68658132	          0.62564684	          0.57003216	          0.00000000	          0.27290823	          0.00000000	          0.00000000	          0.00000000	          0.00000000	          0.78615205	          0.00000000	
          2.22600000	          0.00000000	          0.00000000	          0.00000000	          0.00000000	          0.00000000	          0.00000000	         64.50015510	        195.23861110	          0.72092978	          0.57019497	          0.00000000	          0.27291175	          0.00000000	          0.00000000	          0.00000000	          0.00000000	          0.74895065	          0.00000000	
          2.22700000	          0.00000000	          0.00000000	          0.00000000	          0.00000000	          0.00000000	          0.00000000	         62.68184811	        188.83503336	          0.80546043	          0.57035967	          0.00000000	          0.27291510	          0.00000000	          0.00000000	          0.00000000	          0.00000000	          0.71224560	          0.00000000	
